{
  "accessors": [
    {
      "bufferView": 2,
      "componentType": 5126,
      "count": 11520,
      "max": [
        266.09808349609375,
        1042.3009033203125,
        308.04534912109375
      ],
      "min": [
        -274.8521423339844,
        -2.627415180206299,
        -253.58230590820313
      ],
      "type": "VEC3"
    },
    {
      "bufferView": 2,
      "byteOffset": 138240,
      "componentType": 5126,
      "count": 11520,
      "max": [
        0.9998487234115601,
        0.9997679591178894,
        0.9995315074920654
      ],
      "min": [
        -0.9998524188995361,
        -0.9989975094795227,
        -0.9983402490615845
      ],
      "type": "VEC3"
    },
    {
      "bufferView": 1,
      "componentType": 5126,
      "count": 11520,
      "max": [
        -0.0014600000577047467,
        10.666879653930664
      ],
      "min": [
        -0.9995099902153015,
        0.0
      ],
      "type": "VEC2"
    },
    {
      "bufferView": 1,
      "byteOffset": 92160,
      "componentType": 5126,
      "count": 11520,
      "max": [
        0.9988919496536255,
        0.9988828897476196
      ],
      "min": [
        0.0,
        0.0
      ],
      "type": "VEC2"
    },
    {
      "bufferView": 0,
      "componentType": 5125,
      "count": 31308,
      "type": "SCALAR"
    },
    {
      "bufferView": 2,
      "byteOffset": 276480,
      "componentType": 5126,
      "count": 5632,
      "max": [
        355.84576416015625,
        1139.535888671875,
        396.4183654785156
      ],
      "min": [
        -365.9798278808594,
        238.7109832763672,
        -341.83441162109375
      ],
      "type": "VEC3"
    },
    {
      "bufferView": 2,
      "byteOffset": 344064,
      "componentType": 5126,
      "count": 5632,
      "max": [
        0.9999794960021973,
        0.9999068975448608,
        0.9996286630630493
      ],
      "min": [
        -0.9999794960021973,
        -0.9999068975448608,
        -0.9993785619735718
      ],
      "type": "VEC3"
    },
    {
      "bufferView": 1,
      "byteOffset": 184320,
      "componentType": 5126,
      "count": 5632,
      "max": [
        1.000100016593933,
        -0.0
      ],
      "min": [
        9.999999747378752e-05,
        -1.0
      ],
      "type": "VEC2"
    },
    {
      "bufferView": 1,
      "byteOffset": 229376,
      "componentType": 5126,
      "count": 5632,
      "max": [
        0.9981622695922852,
        0.9985581040382385
      ],
      "min": [
        0.052597660571336746,
        0.08463668823242188
      ],
      "type": "VEC2"
    },
    {
      "bufferView": 0,
      "byteOffset": 125232,
      "componentType": 5125,
      "count": 8448,
      "type": "SCALAR"
    }
  ],
  "asset": {
    "extras": {
      "author": "Next Spring (https://sketchfab.com/NextSpring)",
      "license": "CC-BY-4.0 (http://creativecommons.org/licenses/by/4.0/)",
      "source": "https://sketchfab.com/3d-models/realistic-maple-tree-models-2df03aada7be43feba1af7b8df789c22",
      "title": "Realistic Maple Tree Models"
    },
    "generator": "Sketchfab-15.44.0",
    "version": "2.0"
  },
  "bufferViews": [
    {
      "buffer": 0,
      "byteLength": 159024,
      "name": "floatBufferViews",
      "target": 34963
    },
    {
      "buffer": 0,
      "byteLength": 274432,
      "byteOffset": 159024,
      "byteStride": 8,
      "name": "floatBufferViews",
      "target": 34962
    },
    {
      "buffer": 0,
      "byteLength": 411648,
      "byteOffset": 433456,
      "byteStride": 12,
      "name": "floatBufferViews",
      "target": 34962
    }
  ],
  "buffers": [
    {
      "byteLength": 845104,
      "uri": "scene.bin"
    }
  ],
  "extensionsUsed": [
    "KHR_materials_specular"
  ],
  "images": [
    {
      "uri": "textures/Type1_Bark_baseColor.png"
    },
    {
      "uri": "textures/Type1_Leaf_baseColor.png"
    }
  ],
  "materials": [
    {
      "doubleSided": true,
      "extensions": {
        "KHR_materials_specular": {
          "specularColorFactor": [
            1.0,
            1.0,
            1.0
          ],
          "specularFactor": 0.0
        }
      },
      "name": "Type1_Bark",
      "pbrMetallicRoughness": {
        "baseColorTexture": {
          "index": 0
        },
        "metallicFactor": 0.0,
        "roughnessFactor": 0.6
      }
    },
    {
      "alphaCutoff": 0.302,
      "alphaMode": "MASK",
      "doubleSided": true,
      "extensions": {
        "KHR_materials_specular": {
          "specularColorFactor": [
            1.0,
            1.0,
            1.0
          ],
          "specularFactor": 0.0
        }
      },
      "name": "Type1_Leaf",
      "pbrMetallicRoughness": {
        "baseColorTexture": {
          "index": 1
        },
        "metallicFactor": 0.0,
        "roughnessFactor": 0.6
      }
    }
  ],
  "meshes": [
    {
      "name": "Type_1_8_Type1_Bark_0",
      "primitives": [
        {
          "attributes": {
            "NORMAL": 1,
            "POSITION": 0,
            "TEXCOORD_0": 2,
            "TEXCOORD_1": 3
          },
          "indices": 4,
          "material": 0,
          "mode": 4
        }
      ]
    },
    {
      "name": "Type_1_8_Type1_Leaf_0",
      "primitives": [
        {
          "attributes": {
            "NORMAL": 6,
            "POSITION": 5,
            "TEXCOORD_0": 7,
            "TEXCOORD_1": 8
          },
          "indices": 9,
          "material": 1,
          "mode": 4
        }
      ]
    }
  ],
  "nodes": [
    {
      "children": [
        1
      ],
      "matrix": [
        1.0,
        0.0,
        0.0,
        0.0,
        0.0,
        2.220446049250313e-16,
        -1.0,
        0.0,
        0.0,
        1.0,
        2.220446049250313e-16,
        0.0,
        0.0,
        0.0,
        0.0,
        1.0
      ],
      "name": "Sketchfab_model"
    },
    {
      "children": [
        2
      ],
      "matrix": [
        0.009999999776482582,
        0.0,
        0.0,
        0.0,
        0.0,
        0.0,
        0.009999999776482582,
        0.0,
        0.0,
        -0.009999999776482582,
        0.0,
        0.0,
        0.0,
        0.0,
        0.0,
        1.0
      ],
      "name": "Mobile .fbx"
    },
    {
      "children": [
        3
      ],
      "name": "RootNode"
    },
    {
      "children": [
        4
      ],
      "name": "Mobile_"
    },
    {
      "children": [
        5,
        6
      ],
      "name": "Type_1_8"
    },
    {
      "mesh": 0,
      "name": "Type_1_8_Type1_Bark_0"
    },
    {
      "mesh": 1,
      "name": "Type_1_8_Type1_Leaf_0"
    }
  ],
  "samplers": [
    {
      "magFilter": 9729,
      "minFilter": 9987,
      "wrapS": 10497,
      "wrapT": 10497
    }
  ],
  "scene": 0,
  "scenes": [
    {
      "name": "Sketchfab_Scene",
      "nodes": [
        0
      ]
    }
  ],
  "textures": [
    {
      "sampler": 0,
      "source": 0
    },
    {
      "sampler": 0,
      "source": 1
    }
  ]
}
