{
  "accessors": [
    {
      "bufferView": 2,
      "componentType": 5126,
      "count": 14196,
      "max": [
        0.37084877490997314,
        0.8003612160682678,
        0.37084972858428955
      ],
      "min": [
        -0.37084928154945374,
        0.0,
        -0.3708502948284149
      ],
      "type": "VEC3"
    },
    {
      "bufferView": 2,
      "byteOffset": 170352,
      "componentType": 5126,
      "count": 14196,
      "max": [
        0.9999021291732788,
        1.0,
        0.9999122619628906
      ],
      "min": [
        -0.998912513256073,
        -1.0,
        -0.999923825263977
      ],
      "type": "VEC3"
    },
    {
      "bufferView": 1,
      "componentType": 5126,
      "count": 14196,
      "max": [
        0.9999310970306396,
        0.9995419979095459
      ],
      "min": [
        0.0003385219897609204,
        0.00047757301945239305
      ],
      "type": "VEC2"
    },
    {
      "bufferView": 0,
      "componentType": 5125,
      "count": 40704,
      "type": "SCALAR"
    },
    {
      "bufferView": 2,
      "byteOffset": 340704,
      "componentType": 5126,
      "count": 11384,
      "max": [
        0.27833664417266846,
        0.999477744102478,
        0.33231213688850403
      ],
      "min": [
        -0.27833664417266846,
        1.6066108443624216e-08,
        -0.25564008951187134
      ],
      "type": "VEC3"
    },
    {
      "bufferView": 2,
      "byteOffset": 477312,
      "componentType": 5126,
      "count": 11384,
      "max": [
        0.9999356269836426,
        0.9999212026596069,
        0.9994850158691406
      ],
      "min": [
        -0.9999356269836426,
        -0.9970199465751648,
        -0.9995886087417603
      ],
      "type": "VEC3"
    },
    {
      "bufferView": 1,
      "byteOffset": 113568,
      "componentType": 5126,
      "count": 11384,
      "max": [
        0.999326229095459,
        0.9996376633644104
      ],
      "min": [
        5.2335861255414784e-05,
        0.0017885534325614572
      ],
      "type": "VEC2"
    },
    {
      "bufferView": 0,
      "byteOffset": 162816,
      "componentType": 5125,
      "count": 36552,
      "type": "SCALAR"
    },
    {
      "bufferView": 2,
      "byteOffset": 613920,
      "componentType": 5126,
      "count": 11384,
      "max": [
        0.2867638170719147,
        0.999477744102478,
        0.25543442368507385
      ],
      "min": [
        -0.2867638170719147,
        1.6066108443624216e-08,
        -0.3322349488735199
      ],
      "type": "VEC3"
    },
    {
      "bufferView": 2,
      "byteOffset": 750528,
      "componentType": 5126,
      "count": 11384,
      "max": [
        0.9993979930877686,
        0.9999213218688965,
        0.9999524354934692
      ],
      "min": [
        -0.9993979930877686,
        -0.9970216155052185,
        -0.9996877908706665
      ],
      "type": "VEC3"
    },
    {
      "bufferView": 1,
      "byteOffset": 204640,
      "componentType": 5126,
      "count": 11384,
      "max": [
        0.999326229095459,
        0.9996376633644104
      ],
      "min": [
        5.2335861255414784e-05,
        0.0017885534325614572
      ],
      "type": "VEC2"
    },
    {
      "bufferView": 0,
      "byteOffset": 309024,
      "componentType": 5125,
      "count": 36552,
      "type": "SCALAR"
    }
  ],
  "asset": {
    "extras": {
      "author": "Ryoce (https://sketchfab.com/Ryoce)",
      "license": "CC-BY-4.0 (http://creativecommons.org/licenses/by/4.0/)",
      "source": "https://sketchfab.com/3d-models/garden-set-victorian-884d585e35eb4f389b098581246ea265",
      "title": "Garden Set Victorian"
    },
    "generator": "Sketchfab-12.65.0",
    "version": "2.0"
  },
  "bufferViews": [
    {
      "buffer": 0,
      "byteLength": 455232,
      "name": "floatBufferViews",
      "target": 34963
    },
    {
      "buffer": 0,
      "byteLength": 295712,
      "byteOffset": 455232,
      "byteStride": 8,
      "name": "floatBufferViews",
      "target": 34962
    },
    {
      "buffer": 0,
      "byteLength": 887136,
      "byteOffset": 750944,
      "byteStride": 12,
      "name": "floatBufferViews",
      "target": 34962
    }
  ],
  "buffers": [
    {
      "byteLength": 1638080,
      "uri": "scene.bin"
    }
  ],
  "images": [
    {
      "uri": "textures/Material_metallicRoughness.png"
    },
    {
      "uri": "textures/Material.005_metallicRoughness.png"
    }
  ],
  "materials": [
    {
      "doubleSided": true,
      "name": "Material",
      "pbrMetallicRoughness": {
        "baseColorFactor": [
          0.4427083571,
          0.4481568078,
          0.4403848726,
          1.0
        ],
        "metallicFactor": 0.0,
        "metallicRoughnessTexture": {
          "index": 0
        }
      }
    },
    {
      "doubleSided": true,
      "name": "Material.005",
      "pbrMetallicRoughness": {
        "baseColorFactor": [
          0.4452011945,
          0.4507857828,
          0.4396571738,
          1.0
        ],
        "metallicFactor": 0.0,
        "metallicRoughnessTexture": {
          "index": 1
        }
      }
    }
  ],
  "meshes": [
    {
      "name": "Object_0",
      "primitives": [
        {
          "attributes": {
            "NORMAL": 1,
            "POSITION": 0,
            "TEXCOORD_0": 2
          },
          "indices": 3,
          "material": 0,
          "mode": 4
        }
      ]
    },
    {
      "name": "Object_1",
      "primitives": [
        {
          "attributes": {
            "NORMAL": 5,
            "POSITION": 4,
            "TEXCOORD_0": 6
          },
          "indices": 7,
          "material": 1,
          "mode": 4
        }
      ]
    },
    {
      "name": "Object_2",
      "primitives": [
        {
          "attributes": {
            "NORMAL": 9,
            "POSITION": 8,
            "TEXCOORD_0": 10
          },
          "indices": 11,
          "material": 1,
          "mode": 4
        }
      ]
    }
  ],
  "nodes": [
    {
      "children": [
        1
      ],
      "matrix": [
        2.2160775661468506,
        0.0,
        0.0,
        0.0,
        0.0,
        4.920680676583024e-16,
        -2.2160775661468506,
        0.0,
        0.0,
        2.2160775661468506,
        4.920680676583024e-16,
        0.0,
        0.0,
        0.0,
        0.0,
        1.0
      ],
      "name": "Sketchfab_model"
    },
    {
      "children": [
        2
      ],
      "name": "root"
    },
    {
      "children": [
        3,
        5,
        7
      ],
      "matrix": [
        1.0,
        0.0,
        0.0,
        0.0,
        0.0,
        2.220446049250313e-16,
        1.0,
        0.0,
        0.0,
        -1.0,
        2.220446049250313e-16,
        0.0,
        0.0,
        0.0,
        0.0,
        1.0
      ],
      "name": "GLTF_SceneRootNode"
    },
    {
      "children": [
        4
      ],
      "matrix": [
        -0.5000000828614422,
        0.0,
        -0.8660253559443574,
        0.0,
        0.0,
        1.0,
        0.0,
        0.0,
        0.8660253559443574,
        0.0,
        -0.5000000828614422,
        0.0,
        0.0,
        0.0,
        0.0,
        1.0
      ],
      "name": "Plane.004_1"
    },
    {
      "mesh": 0,
      "name": "Object_4"
    },
    {
      "children": [
        6
      ],
      "matrix": [
        0.9993234678098735,
        0.0,
        -0.036777801517339254,
        0.0,
        0.0,
        1.0,
        0.0,
        0.0,
        0.036777801517339254,
        0.0,
        0.9993234678098735,
        0.0,
        0.0,
        0.0,
        0.6000000238418579,
        1.0
      ],
      "name": "Plane.002_2"
    },
    {
      "mesh": 1,
      "name": "Object_6"
    },
    {
      "children": [
        8
      ],
      "matrix": [
        1.0,
        0.0,
        0.0,
        0.0,
        0.0,
        1.0,
        0.0,
        0.0,
        0.0,
        0.0,
        1.0,
        0.0,
        0.0,
        0.0,
        -0.6000000238418579,
        1.0
      ],
      "name": "Plane.000_3"
    },
    {
      "mesh": 2,
      "name": "Object_8"
    }
  ],
  "samplers": [
    {
      "magFilter": 9729,
      "minFilter": 9987,
      "wrapS": 10497,
      "wrapT": 10497
    }
  ],
  "scene": 0,
  "scenes": [
    {
      "name": "Sketchfab_Scene",
      "nodes": [
        0
      ]
    }
  ],
  "textures": [
    {
      "sampler": 0,
      "source": 0
    },
    {
      "sampler": 0,
      "source": 1
    }
  ]
}
