{
  "accessors": [
    {
      "bufferView": 2,
      "componentType": 5126,
      "count": 441,
      "max": [
        1.0643879175186157,
        1.2118135690689087,
        1.0459445714950562
      ],
      "min": [
        -1.0747203826904297,
        -1.0204492807388306,
        -1.0599467754364014
      ],
      "type": "VEC3"
    },
    {
      "bufferView": 2,
      "byteOffset": 5292,
      "componentType": 5126,
      "count": 441,
      "max": [
        0.9999714493751526,
        0.9974952340126038,
        0.9999452829360962
      ],
      "min": [
        -0.9999635815620422,
        -0.9999994039535522,
        -0.9999428391456604
      ],
      "type": "VEC3"
    },
    {
      "bufferView": 1,
      "componentType": 5126,
      "count": 441,
      "max": [
        0.8750001192092896,
        1.0000001192092896
      ],
      "min": [
        0.125,
        0.0
      ],
      "type": "VEC2"
    },
    {
      "bufferView": 0,
      "componentType": 5125,
      "count": 2304,
      "type": "SCALAR"
    },
    {
      "bufferView": 2,
      "byteOffset": 10584,
      "componentType": 5126,
      "count": 2077,
      "max": [
        1.0327134132385254,
        1.1897099018096924,
        1.1473866701126099
      ],
      "min": [
        -1.2062996625900269,
        -1.0246227979660034,
        -1.1937142610549927
      ],
      "type": "VEC3"
    },
    {
      "bufferView": 2,
      "byteOffset": 35508,
      "componentType": 5126,
      "count": 2077,
      "max": [
        0.9998111724853516,
        0.9998969435691833,
        0.9989665746688843
      ],
      "min": [
        -0.9962146282196045,
        -0.9992073774337769,
        -0.9996592402458191
      ],
      "type": "VEC3"
    },
    {
      "bufferView": 1,
      "byteOffset": 3528,
      "componentType": 5126,
      "count": 2077,
      "max": [
        1.0,
        1.0
      ],
      "min": [
        0.0,
        0.0
      ],
      "type": "VEC2"
    },
    {
      "bufferView": 0,
      "byteOffset": 9216,
      "componentType": 5125,
      "count": 11520,
      "type": "SCALAR"
    },
    {
      "bufferView": 2,
      "byteOffset": 60432,
      "componentType": 5126,
      "count": 5479,
      "max": [
        1.001400351524353,
        0.5620215535163879,
        1.0242501497268677
      ],
      "min": [
        -1.0128532648086548,
        -1.037196397781372,
        -1.0172466039657593
      ],
      "type": "VEC3"
    },
    {
      "bufferView": 2,
      "byteOffset": 126180,
      "componentType": 5126,
      "count": 5479,
      "max": [
        0.9999673962593079,
        0.9181642532348633,
        0.9973454475402832
      ],
      "min": [
        -0.9995534420013428,
        -0.9999628663063049,
        -0.9997701048851013
      ],
      "type": "VEC3"
    },
    {
      "bufferView": 1,
      "byteOffset": 20144,
      "componentType": 5126,
      "count": 5479,
      "max": [
        1.0000001192092896,
        0.6562502384185791
      ],
      "min": [
        0.0,
        0.0
      ],
      "type": "VEC2"
    },
    {
      "bufferView": 0,
      "byteOffset": 55296,
      "componentType": 5125,
      "count": 31866,
      "type": "SCALAR"
    },
    {
      "bufferView": 2,
      "byteOffset": 191928,
      "componentType": 5126,
      "count": 2077,
      "max": [
        1.0547724962234497,
        0.9139564633369446,
        1.0015231370925903
      ],
      "min": [
        -1.0114666223526,
        -1.013391137123108,
        -1.013968825340271
      ],
      "type": "VEC3"
    },
    {
      "bufferView": 2,
      "byteOffset": 216852,
      "componentType": 5126,
      "count": 2077,
      "max": [
        0.999485194683075,
        0.998803973197937,
        0.9995977878570557
      ],
      "min": [
        -0.9986650943756104,
        -0.9994858503341675,
        -0.999714732170105
      ],
      "type": "VEC3"
    },
    {
      "bufferView": 1,
      "byteOffset": 63976,
      "componentType": 5126,
      "count": 2077,
      "max": [
        1.0,
        1.0
      ],
      "min": [
        0.0,
        0.0
      ],
      "type": "VEC2"
    },
    {
      "bufferView": 0,
      "byteOffset": 182760,
      "componentType": 5125,
      "count": 11520,
      "type": "SCALAR"
    },
    {
      "bufferView": 2,
      "byteOffset": 241776,
      "componentType": 5126,
      "count": 2077,
      "max": [
        1.0547724962234497,
        0.9139564633369446,
        1.0015231370925903
      ],
      "min": [
        -1.0114666223526,
        -1.013391137123108,
        -1.013968825340271
      ],
      "type": "VEC3"
    },
    {
      "bufferView": 2,
      "byteOffset": 266700,
      "componentType": 5126,
      "count": 2077,
      "max": [
        0.999485194683075,
        0.998803973197937,
        0.9995977878570557
      ],
      "min": [
        -0.9986650943756104,
        -0.9994858503341675,
        -0.999714732170105
      ],
      "type": "VEC3"
    },
    {
      "bufferView": 1,
      "byteOffset": 80592,
      "componentType": 5126,
      "count": 2077,
      "max": [
        1.0,
        1.0
      ],
      "min": [
        0.0,
        0.0
      ],
      "type": "VEC2"
    },
    {
      "bufferView": 0,
      "byteOffset": 228840,
      "componentType": 5125,
      "count": 11520,
      "type": "SCALAR"
    },
    {
      "bufferView": 2,
      "byteOffset": 291624,
      "componentType": 5126,
      "count": 167,
      "max": [
        1.2177399396896362,
        0.1979057490825653,
        1.7141108512878418
      ],
      "min": [
        -1.170677661895752,
        -0.32487428188323975,
        -1.8155193328857422
      ],
      "type": "VEC3"
    },
    {
      "bufferView": 2,
      "byteOffset": 293628,
      "componentType": 5126,
      "count": 167,
      "max": [
        0.2534583806991577,
        0.9999969005584717,
        0.4485222399234772
      ],
      "min": [
        -0.2491014003753662,
        0.8583568334579468,
        -0.40283897519111633
      ],
      "type": "VEC3"
    },
    {
      "bufferView": 1,
      "byteOffset": 97208,
      "componentType": 5126,
      "count": 167,
      "max": [
        1.0000001192092896,
        1.0000001192092896
      ],
      "min": [
        0.0,
        0.0
      ],
      "type": "VEC2"
    },
    {
      "bufferView": 0,
      "byteOffset": 274920,
      "componentType": 5125,
      "count": 852,
      "type": "SCALAR"
    },
    {
      "bufferView": 2,
      "byteOffset": 295632,
      "componentType": 5126,
      "count": 167,
      "max": [
        1.2177399396896362,
        0.1979057490825653,
        1.7141108512878418
      ],
      "min": [
        -1.170677661895752,
        -0.32487428188323975,
        -1.8155193328857422
      ],
      "type": "VEC3"
    },
    {
      "bufferView": 2,
      "byteOffset": 297636,
      "componentType": 5126,
      "count": 167,
      "max": [
        0.2534583806991577,
        0.9999969005584717,
        0.4485222399234772
      ],
      "min": [
        -0.2491014003753662,
        0.8583568334579468,
        -0.40283897519111633
      ],
      "type": "VEC3"
    },
    {
      "bufferView": 1,
      "byteOffset": 98544,
      "componentType": 5126,
      "count": 167,
      "max": [
        1.0000001192092896,
        1.0000001192092896
      ],
      "min": [
        0.0,
        0.0
      ],
      "type": "VEC2"
    },
    {
      "bufferView": 0,
      "byteOffset": 278328,
      "componentType": 5125,
      "count": 852,
      "type": "SCALAR"
    }
  ],
  "asset": {
    "extras": {
      "author": "Polybyheart (https://sketchfab.com/Polybyheart)",
      "license": "CC-BY-4.0 (http://creativecommons.org/licenses/by/4.0/)",
      "source": "https://sketchfab.com/3d-models/puff-pastry-029713bb9ead4b99b0487011fb6f22c1",
      "title": "puff pastry"
    },
    "generator": "Sketchfab-15.36.0",
    "version": "2.0"
  },
  "bufferViews": [
    {
      "buffer": 0,
      "byteLength": 281736,
      "name": "floatBufferViews",
      "target": 34963
    },
    {
      "buffer": 0,
      "byteLength": 99880,
      "byteOffset": 281736,
      "byteStride": 8,
      "name": "floatBufferViews",
      "target": 34962
    },
    {
      "buffer": 0,
      "byteLength": 299640,
      "byteOffset": 381616,
      "byteStride": 12,
      "name": "floatBufferViews",
      "target": 34962
    }
  ],
  "buffers": [
    {
      "byteLength": 681256,
      "uri": "scene.bin"
    }
  ],
  "images": [
    {
      "uri": "textures/Material_baseColor.png"
    },
    {
      "uri": "textures/Material.001_baseColor.png"
    },
    {
      "uri": "textures/Material.002_baseColor.png"
    },
    {
      "uri": "textures/Material.003_baseColor.png"
    },
    {
      "uri": "textures/Material.004_baseColor.png"
    },
    {
      "uri": "textures/Material.005_baseColor.png"
    }
  ],
  "materials": [
    {
      "doubleSided": true,
      "name": "Material",
      "pbrMetallicRoughness": {
        "baseColorTexture": {
          "index": 0
        },
        "metallicFactor": 0.0,
        "roughnessFactor": 0.688976
      }
    },
    {
      "doubleSided": true,
      "name": "Material.001",
      "pbrMetallicRoughness": {
        "baseColorTexture": {
          "index": 1
        },
        "metallicFactor": 0.0,
        "roughnessFactor": 0.854331
      }
    },
    {
      "doubleSided": true,
      "name": "Material.002",
      "pbrMetallicRoughness": {
        "baseColorTexture": {
          "index": 2
        },
        "metallicFactor": 0.0,
        "roughnessFactor": 0.885827
      }
    },
    {
      "doubleSided": true,
      "name": "Material.003",
      "pbrMetallicRoughness": {
        "baseColorTexture": {
          "index": 3
        },
        "metallicFactor": 0.0,
        "roughnessFactor": 0.822835
      }
    },
    {
      "doubleSided": true,
      "name": "Material.004",
      "pbrMetallicRoughness": {
        "baseColorTexture": {
          "index": 4
        },
        "metallicFactor": 0.0,
        "roughnessFactor": 0.909449
      }
    },
    {
      "doubleSided": true,
      "name": "Material.005",
      "pbrMetallicRoughness": {
        "baseColorTexture": {
          "index": 5
        },
        "metallicFactor": 0.0,
        "roughnessFactor": 0.917323
      }
    }
  ],
  "meshes": [
    {
      "name": "Object_0",
      "primitives": [
        {
          "attributes": {
            "NORMAL": 1,
            "POSITION": 0,
            "TEXCOORD_0": 2
          },
          "indices": 3,
          "material": 0,
          "mode": 4
        }
      ]
    },
    {
      "name": "Object_1",
      "primitives": [
        {
          "attributes": {
            "NORMAL": 5,
            "POSITION": 4,
            "TEXCOORD_0": 6
          },
          "indices": 7,
          "material": 1,
          "mode": 4
        }
      ]
    },
    {
      "name": "Object_2",
      "primitives": [
        {
          "attributes": {
            "NORMAL": 9,
            "POSITION": 8,
            "TEXCOORD_0": 10
          },
          "indices": 11,
          "material": 2,
          "mode": 4
        }
      ]
    },
    {
      "name": "Object_3",
      "primitives": [
        {
          "attributes": {
            "NORMAL": 13,
            "POSITION": 12,
            "TEXCOORD_0": 14
          },
          "indices": 15,
          "material": 3,
          "mode": 4
        }
      ]
    },
    {
      "name": "Object_4",
      "primitives": [
        {
          "attributes": {
            "NORMAL": 17,
            "POSITION": 16,
            "TEXCOORD_0": 18
          },
          "indices": 19,
          "material": 4,
          "mode": 4
        }
      ]
    },
    {
      "name": "Object_5",
      "primitives": [
        {
          "attributes": {
            "NORMAL": 21,
            "POSITION": 20,
            "TEXCOORD_0": 22
          },
          "indices": 23,
          "material": 5,
          "mode": 4
        }
      ]
    },
    {
      "name": "Object_6",
      "primitives": [
        {
          "attributes": {
            "NORMAL": 25,
            "POSITION": 24,
            "TEXCOORD_0": 26
          },
          "indices": 27,
          "material": 5,
          "mode": 4
        }
      ]
    }
  ],
  "nodes": [
    {
      "children": [
        1
      ],
      "matrix": [
        1.0,
        0.0,
        0.0,
        0.0,
        0.0,
        2.220446049250313e-16,
        -1.0,
        0.0,
        0.0,
        1.0,
        2.220446049250313e-16,
        0.0,
        0.0,
        0.0,
        0.0,
        1.0
      ],
      "name": "Sketchfab_model"
    },
    {
      "children": [
        2
      ],
      "name": "root"
    },
    {
      "children": [
        3,
        5,
        7,
        9,
        11,
        13,
        15
      ],
      "matrix": [
        1.0,
        0.0,
        0.0,
        0.0,
        0.0,
        2.220446049250313e-16,
        1.0,
        0.0,
        0.0,
        -1.0,
        2.220446049250313e-16,
        0.0,
        0.0,
        0.0,
        0.0,
        1.0
      ],
      "name": "GLTF_SceneRootNode"
    },
    {
      "children": [
        4
      ],
      "matrix": [
        0.24587500095367432,
        0.0,
        0.0,
        0.0,
        0.0,
        0.1150183379650116,
        0.0,
        0.0,
        0.0,
        0.0,
        0.24587500095367432,
        0.0,
        0.0,
        0.1913587599992752,
        0.0,
        1.0
      ],
      "name": "Cube_0"
    },
    {
      "mesh": 0,
      "name": "Object_4"
    },
    {
      "children": [
        6
      ],
      "matrix": [
        0.1879611313343048,
        0.0,
        0.0,
        0.0,
        0.0,
        0.09495098143815994,
        0.0,
        0.0,
        0.0,
        0.0,
        0.16373595595359802,
        0.0,
        0.0,
        0.2903321385383606,
        0.0,
        1.0
      ],
      "name": "Sphere_3"
    },
    {
      "mesh": 1,
      "name": "Object_6"
    },
    {
      "children": [
        8
      ],
      "matrix": [
        0.07398828864097595,
        0.0,
        0.0,
        0.0,
        0.0,
        0.040525224892887665,
        -0.06842562308097763,
        0.0,
        0.0,
        0.06366099413018976,
        0.03770336297818746,
        0.0,
        0.13029980659484863,
        0.3496183454990387,
        0.14350320398807526,
        1.0
      ],
      "name": "Sphere.001_4"
    },
    {
      "mesh": 2,
      "name": "Object_8"
    },
    {
      "children": [
        10
      ],
      "matrix": [
        0.04612481538362838,
        -0.01678304624390048,
        0.0,
        0.0,
        0.01678304624390048,
        0.04612481538362838,
        0.0,
        0.0,
        0.0,
        0.0,
        0.04908328875899315,
        0.0,
        0.19927023351192474,
        0.31480658054351807,
        0.004588766023516655,
        1.0
      ],
      "name": "Sphere.002_5"
    },
    {
      "mesh": 3,
      "name": "Object_10"
    },
    {
      "children": [
        12
      ],
      "matrix": [
        0.04456732811339016,
        0.0,
        0.02847344760005936,
        0.0,
        0.0,
        0.05288651958107948,
        0.0,
        0.0,
        -0.02847344760005936,
        0.0,
        0.04456732811339016,
        0.0,
        0.14872074127197266,
        0.31480658054351807,
        -0.09328466653823853,
        1.0
      ],
      "name": "Sphere.003_6"
    },
    {
      "mesh": 4,
      "name": "Object_12"
    },
    {
      "children": [
        14
      ],
      "matrix": [
        -0.02670916918811704,
        5.753033300938829e-10,
        0.029758841034361782,
        0.0,
        -0.007510408570031554,
        0.031198202561098395,
        -0.006740746082337774,
        0.0,
        -0.03729498527949538,
        -0.016210345931048177,
        -0.03347301264932725,
        0.0,
        0.23136618733406067,
        0.3252316415309906,
        0.17011596262454987,
        1.0
      ],
      "name": "Plane.001_7"
    },
    {
      "mesh": 5,
      "name": "Object_14"
    },
    {
      "children": [
        16
      ],
      "matrix": [
        0.0005766485887329502,
        2.533109245732752e-10,
        0.04548432234626064,
        0.0,
        -0.0114791374633485,
        0.03549002273671188,
        0.00014553189069651357,
        0.0,
        -0.05700279442133992,
        -0.01844033999981437,
        0.0007226794625586428,
        0.0,
        0.24695885181427002,
        0.3260746896266937,
        0.08604571968317032,
        1.0
      ],
      "name": "Plane.002_8"
    },
    {
      "mesh": 6,
      "name": "Object_16"
    }
  ],
  "samplers": [
    {
      "magFilter": 9729,
      "minFilter": 9987,
      "wrapS": 10497,
      "wrapT": 10497
    }
  ],
  "scene": 0,
  "scenes": [
    {
      "name": "Sketchfab_Scene",
      "nodes": [
        0
      ]
    }
  ],
  "textures": [
    {
      "sampler": 0,
      "source": 0
    },
    {
      "sampler": 0,
      "source": 1
    },
    {
      "sampler": 0,
      "source": 2
    },
    {
      "sampler": 0,
      "source": 3
    },
    {
      "sampler": 0,
      "source": 4
    },
    {
      "sampler": 0,
      "source": 5
    }
  ]
}
